# xmcd CD database file
#
# Track frame offsets:
#	150
#	12342
#	24390
#	35445
#	47435
#	59225
#	70242
#	80295
#	91327
#	100875
#	112165
#	125760
#	136192
#	148195
#	158887
#	168205
#	177670
#	189452
#	200975
#	212145
#	224332
#	236230
#	249145
#	257865
#	268922
#	282055
#	292325
#	304685
#	316615
#	327145
#
# Disc length: 4521 seconds
#
# Revision: 0
# Processed by: cddbd v1.5.2PL0 Copyright (c) Steve Scherf et al.
# Submitted via: CDex 1.51
#
DISCID=ce11a71e
DTITLE=V/A - Marginal's Soul Female Favorite Tracks
DYEAR=1997
DGENRE=
TTITLE0=Shirelles - The Things I Want To Hear
TTITLE1=Supremes - Take Me Where You Go
TTITLE2=Wells, Mary - When Your Lover Comes Back
TTITLE3=Sharp, Dee Dee - The Night
TTITLE4=Martha and the Vandellas - Moments (To Remember)
TTITLE5=Marvelettes - The One Who Really Loves You
TTITLE6=Ronettes - I Want A Boy
TTITLE7=Crystals - Oh! Yeah, Maybe Baby
TTITLE8=Everette, Betty - Trouble Over The Weekend
TTITLE9=Brown, Maxine - Yesterday's Kisses
TTITLE10=Exciters - Hard Way To Go
TTITLE11=Orlons - I Ain't Coming Back
TTITLE12=Holloway, Brenda - A Favor For A Girl
TTITLE13=Lewis, Barbara - Think A Little Sugar
TTITLE14=Weston, Kim - Another Train Coming
TTITLE15=Chiffons - I Have A Boyfriend
TTITLE16=Ruby and The Romantics - Much Better Off Than I've Ever Been
TTITLE17=Bass, Fontella - Free At Last
TTITLE18=Knight, Gladys - Tell Her You're Mine
TTITLE19=Little Eva - Taking Back What I Said
TTITLE20=Thomas, Irma - Two Winters Long
TTITLE21=Ikettes - I'm So Thankful
TTITLE22=Troy, Doris - But I Love Him
TTITLE23=Thomas, Carla - The Puppet
TTITLE24=James, Etta - Pushover
TTITLE25=Washington, Baby - No Time For Pity
TTITLE26=Warwick, Dionne - Reach Out For Me
TTITLE27=Simone, Nina - Work Song
TTITLE28=Terrell, Tammi - Come On And See Me
TTITLE29=Clark, Chris - Don't Be Too Long
EXTD=YEAR: 1997
EXTT0=
EXTT1=
EXTT2=
EXTT3=
EXTT4=
EXTT5=
EXTT6=
EXTT7=
EXTT8=
EXTT9=
EXTT10=
EXTT11=
EXTT12=
EXTT13=
EXTT14=
EXTT15=
EXTT16=
EXTT17=
EXTT18=
EXTT19=
EXTT20=
EXTT21=
EXTT22=
EXTT23=
EXTT24=
EXTT25=
EXTT26=
EXTT27=
EXTT28=
EXTT29=
PLAYORDER=
